<svg width="48" height="48" viewBox="0 0 48 48" fill="none" xmlns="http://www.w3.org/2000/svg">
<rect width="48" height="48" fill="#323238"/>
<path d="M33.4286 12.5625H14.5665C13.7022 12.5625 13 13.2705 13 14.1396V32.8604C13 33.7295 13.7022 34.4375 14.5665 34.4375H33.4286C34.2929 34.4375 35 33.7295 35 32.8604V14.1396C35 13.2705 34.2929 12.5625 33.4286 12.5625ZM19.6491 31.3125H16.3884V20.873H19.654V31.3125H19.6491ZM18.0187 19.4473C16.9728 19.4473 16.1281 18.6025 16.1281 17.5674C16.1281 16.5322 16.9728 15.6875 18.0187 15.6875C19.0598 15.6875 19.9094 16.5322 19.9094 17.5674C19.9094 18.6074 19.0647 19.4473 18.0187 19.4473ZM31.8719 31.3125H28.6112V26.2344C28.6112 25.0234 28.5866 23.4658 26.917 23.4658C25.2179 23.4658 24.9576 24.7842 24.9576 26.1465V31.3125H21.6969V20.873H24.825V22.2988H24.8692C25.3062 21.4785 26.3719 20.6143 27.958 20.6143C31.258 20.6143 31.8719 22.7773 31.8719 25.5898V31.3125V31.3125Z" fill="white"/>
</svg>
